<svg xmlns="http://www.w3.org/2000/svg" viewBox="0 0 200 200" role="img" aria-label="Cartoon avatar of Lena"><circle cx="100" cy="100" r="100" fill="#3A4A3F"/><path d="M130 70c26 6 34 40 22 74-4-24-12-40-28-48z" fill="#C98B4E"/><path d="M40 200c4-40 28-58 60-58s56 18 60 58z" fill="#8FA38E"/><rect x="88" y="120" width="24" height="26" rx="8" fill="#EBC3A0"/><ellipse cx="100" cy="96" rx="34" ry="39" fill="#F3D2B3"/><path d="M64 96c-2-32 14-48 36-48s40 14 36 44c-14-2-30-10-38-24-6 14-18 24-34 28z" fill="#C98B4E"/><circle cx="136" cy="72" r="8" fill="#C1653D"/><path d="M82 100q6-5 12 0M106 100q6-5 12 0" fill="none" stroke="#2B2B28" stroke-width="3.5" stroke-linecap="round"/><ellipse cx="100" cy="118" rx="8" ry="5" fill="#A4502C"/><circle cx="78" cy="110" r="6" fill="#C1653D" opacity=".35"/><circle cx="122" cy="110" r="6" fill="#C1653D" opacity=".35"/></svg>
